<svg xmlns="http://www.w3.org/2000/svg" xmlns:xlink="http://www.w3.org/1999/xlink" viewBox="0 0 1000 1000"><defs><style>.cls-1{fill:none;}.cls-2{clip-path:url(#clip-path);}.cls-3{fill:url(#linear-gradient);}.cls-4{fill:url(#linear-gradient-2);}.cls-5{fill:url(#linear-gradient-3);}.cls-6{fill:url(#linear-gradient-4);}.cls-7{font-size:151.543px;font-family:OpenSans-SemiBold, Open Sans;font-weight:600;}.cls-8{font-family:OpenSans-Light, Open Sans;font-weight:300;}</style><clipPath id="clip-path"><path class="cls-1" d="M597.952,196.49h76.5a30.169,30.169,0,0,1,30.169,30.169v79.115H656.467c-1.165-70.8,11.127-58.156-58.515-59.374ZM339.129,305.774v-46.61A12.763,12.763,0,0,1,351.893,246.4H405.2V196.49H328.03a30.169,30.169,0,0,0-30.169,30.169v79.115ZM405.2,578.615H351.893a12.764,12.764,0,0,1-12.764-12.765V518.319H297.861v79.976a30.169,30.169,0,0,0,30.169,30.169H405.2Zm251.268-60.3c-1.334,71.5,11.736,59.164-58.515,60.3v49.849h76.5a30.169,30.169,0,0,0,30.169-30.169V518.319Z"/></clipPath><linearGradient id="linear-gradient" x1="292.601" y1="528.178" x2="729.384" y2="285.959" gradientUnits="userSpaceOnUse"><stop offset="0" stop-color="#0066ad"/><stop offset="0.497" stop-color="#508ab9"/><stop offset="1" stop-color="#6ad0d8"/></linearGradient><linearGradient id="linear-gradient-2" x1="318.69" y1="768.312" x2="441.139" y2="733.181" gradientTransform="translate(-157.522 -155.693) rotate(-20)" gradientUnits="userSpaceOnUse"><stop offset="0" stop-color="#0066ad"/><stop offset="1" stop-color="#508ab9"/></linearGradient><linearGradient id="linear-gradient-3" x1="439.287" y1="429.447" x2="561.736" y2="394.316" gradientUnits="userSpaceOnUse"><stop offset="0" stop-color="#508ab9"/><stop offset="1" stop-color="#3ab4e0"/></linearGradient><linearGradient id="linear-gradient-4" x1="436.152" y1="73.989" x2="558.602" y2="38.858" gradientTransform="translate(96.903 195.788) rotate(20)" gradientUnits="userSpaceOnUse"><stop offset="0" stop-color="#60a6c4"/><stop offset="1" stop-color="#6ad0d8"/></linearGradient></defs><title>logo</title><g id="Layer_3" data-name="Layer 3"><g class="cls-2"><rect class="cls-3" x="297.861" y="196.49" width="406.757" height="431.974" rx="24.718"/></g></g><g id="Layer_1" data-name="Layer 1"><path class="cls-4" d="M501.98,541.383c1.458-33.362,24.9-56.546,29.959-79.55s-.513-76.328-52.966-109.739-66.092-55.511-66.092-55.511,3.757,25.7-14.948,85.008,11.3,103.738,29.964,118.11S479.419,516.763,501.98,541.383Z"/><path class="cls-5" d="M501.912,541.735c12.78-30.851,42.738-44.619,55.359-64.506s25.624-71.9-12.238-121.236-43.121-74.768-43.121-74.768-5.259,25.432-43.121,74.768-24.859,101.348-12.238,121.236S489.132,510.884,501.912,541.735Z"/><path class="cls-6" d="M501.89,541.423c22.561-24.619,55.422-27.311,74.083-41.682s48.67-58.8,29.965-118.11-14.948-85.008-14.948-85.008-13.64,22.1-66.093,55.511-58.023,86.734-52.965,109.739S500.432,508.061,501.89,541.423Z"/><text class="cls-7" transform="translate(95.146 766.23)">Derma<tspan class="cls-8" x="496.659" y="0">Scan</tspan></text></g></svg>